<?xml version="1.0" encoding="UTF-8" standalone="no"?><!DOCTYPE svg PUBLIC "-//W3C//DTD SVG 1.1//EN"          "http://www.w3.org/Graphics/SVG/1.1/DTD/svg11.dtd" [	<!ENTITY incx1 "1">	<!ENTITY incy1 "-1">    <!ENTITY incx2 "2">	<!ENTITY incy2 "-2">    ]><!-- Created with Inkscape (http://www.inkscape.org/) --><svg   xmlns:dc="http://purl.org/dc/elements/1.1/"   xmlns:cc="http://creativecommons.org/ns#"   xmlns:rdf="http://www.w3.org/1999/02/22-rdf-syntax-ns#"   xmlns:svg="http://www.w3.org/2000/svg"   xmlns="http://www.w3.org/2000/svg"   xmlns:xlink="http://www.w3.org/1999/xlink"   xmlns:sodipodi="http://sodipodi.sourceforge.net/DTD/sodipodi-0.dtd"   xmlns:inkscape="http://www.inkscape.org/namespaces/inkscape"   id="svg2946"   sodipodi:version="0.32"   inkscape:version="0.46"   sodipodi:docname="fork.svg"   inkscape:output_extension="org.inkscape.output.svg.inkscape"   xmlns:z="http://debeissat.nicolas.free.fr/svg3d/svg3d.rng"             onload="init(this)"           z:xOrigin="0"          z:yOrigin="0"          z:rotationTime="100"          z:sortAlgo="none"  style="fill: #586069;" aria-label="fork" viewBox="0 0 16 16" version="1.1" width="16" height="16" role="img">												<path fill-rule="evenodd" d="M5 3.25a.75.75 0 11-1.5 0 .75.75 0 011.5 0zm0 2.122a2.25 2.25 0 10-1.5 0v.878A2.25 2.25 0 005.75 8.5h1.5v2.128a2.251 2.251 0 101.5 0V8.5h1.5a2.25 2.25 0 002.25-2.25v-.878a2.25 2.25 0 10-1.5 0v.878a.75.75 0 01-.75.75h-4.5A.75.75 0 015 6.25v-.878zm3.75 7.378a.75.75 0 11-1.5 0 .75.75 0 011.5 0zm3-8.75a.75.75 0 100-1.5.75.75 0 000 1.5z"></path></svg>											